<?xml version="1.0" encoding="UTF-8"?>
<svg width="108" height="47" viewBox="0 0 108 47" fill="none" xmlns="http://www.w3.org/2000/svg">
	<path d="M80.7428 23.5745C81.0852 23.5745 81.3309 23.6486 81.4801 23.7968C81.6437 23.9449 81.7258 24.1375 81.7258 24.3745C81.7258 24.7597 81.6069 25.1005 81.3684 25.3968C81.1449 25.693 80.7875 25.8486 80.296 25.8634C79.1191 25.8783 78.0618 25.7894 77.1235 25.5968C76.0807 27.8041 74.8223 29.6412 73.3478 31.1079C71.8883 32.5597 70.4434 33.2856 69.0135 33.2856C67.7028 33.2856 66.7198 32.5968 66.0644 31.219C65.4091 29.8264 65.0367 27.9671 64.9473 25.6412C64.0537 28.219 63.0409 30.1375 61.9089 31.3968C60.7918 32.656 59.6003 33.2856 58.3343 33.2856C56.9044 33.2856 55.8246 32.4041 55.0947 30.6412C54.3649 28.8634 54 26.4783 54 23.4856C54 21.3079 54.1936 18.9153 54.5809 16.3079C54.6852 15.5671 54.8713 15.056 55.1394 14.7745C55.4224 14.4783 55.8618 14.3301 56.4576 14.3301C56.9044 14.3301 57.247 14.4264 57.4853 14.619C57.7385 14.8116 57.8651 15.1671 57.8651 15.6856C57.8651 15.7894 57.8502 15.9894 57.8204 16.2856C57.3736 19.3227 57.1502 21.9079 57.1502 24.0412C57.1502 26.0264 57.3215 27.5597 57.664 28.6412C58.0066 29.7227 58.4683 30.2634 59.0492 30.2634C59.5705 30.2634 60.196 29.7227 60.9259 28.6412C61.6706 27.5449 62.4078 25.9301 63.1377 23.7968C63.8675 21.6486 64.4856 19.093 64.992 16.1301C65.1112 15.4486 65.3272 14.9819 65.6399 14.7301C65.9676 14.4634 66.407 14.3301 66.9581 14.3301C67.4198 14.3301 67.7549 14.4338 67.9634 14.6412C68.1869 14.8338 68.2986 15.1301 68.2986 15.5301C68.2986 15.7671 68.2837 15.9523 68.2539 16.0856C67.8368 18.5005 67.6283 20.9153 67.6283 23.3301C67.6283 24.9745 67.6804 26.2856 67.7847 27.2634C67.9039 28.2412 68.1198 28.9894 68.4326 29.5079C68.7603 30.0116 69.2295 30.2634 69.8401 30.2634C70.5551 30.2634 71.3519 29.7301 72.2307 28.6634C73.1093 27.5819 73.9136 26.2412 74.6436 24.6412C73.7348 24.0783 73.0501 23.3523 72.5881 22.4634C72.1262 21.5597 71.8956 20.5227 71.8956 19.3523C71.8956 18.1819 72.0743 17.1968 72.4318 16.3968C72.8043 15.5819 73.3031 14.9745 73.9286 14.5745C74.5693 14.1745 75.2764 13.9745 76.0511 13.9745C77.0045 13.9745 77.7563 14.3153 78.3076 14.9968C78.8734 15.6783 79.1565 16.6116 79.1565 17.7968C79.1565 19.4708 78.7918 21.3301 78.0618 23.3745C78.8214 23.5079 79.7151 23.5745 80.7428 23.5745ZM74.152 19.1968C74.152 20.6486 74.6212 21.7227 75.5596 22.419C76.1404 20.7597 76.4309 19.3894 76.4309 18.3079C76.4309 17.6856 76.3488 17.2338 76.1851 16.9523C76.0215 16.656 75.7981 16.5079 75.5149 16.5079C75.1127 16.5079 74.7849 16.7449 74.5319 17.219C74.2788 17.6783 74.152 18.3375 74.152 19.1968ZM89.5185 28.219C89.7124 28.219 89.8609 28.3079 89.9654 28.4856C90.0843 28.6634 90.1441 28.9079 90.1441 29.219C90.1441 29.8116 90.0028 30.2708 89.7196 30.5968C89.1683 31.2634 88.3864 31.8783 87.3738 32.4412C86.3756 33.0041 85.3033 33.2856 84.1566 33.2856C82.5927 33.2856 81.379 32.8634 80.5149 32.019C79.6509 31.1745 79.2191 30.019 79.2191 28.5523C79.2191 27.5301 79.4353 26.5819 79.867 25.7079C80.2988 24.819 80.8947 24.1153 81.6543 23.5968C82.429 23.0783 83.3003 22.819 84.2683 22.819C85.1323 22.819 85.8249 23.0783 86.346 23.5968C86.8672 24.1005 87.128 24.7894 87.128 25.6634C87.128 26.6856 86.7555 27.5671 86.0109 28.3079C85.2809 29.0338 84.0376 29.6116 82.2799 30.0412C82.6524 30.7227 83.3595 31.0634 84.4023 31.0634C85.0726 31.0634 85.8322 30.8338 86.6812 30.3745C87.5452 29.9005 88.2898 29.2856 88.9153 28.5301C89.0941 28.3227 89.2951 28.219 89.5185 28.219ZM83.8885 24.9968C83.3372 24.9968 82.868 25.3153 82.481 25.9523C82.1084 26.5894 81.9224 27.3597 81.9224 28.2634V28.3079C82.801 28.1005 83.4936 27.7894 84.0002 27.3745C84.5068 26.9597 84.7598 26.4783 84.7598 25.9301C84.7598 25.6486 84.6777 25.4264 84.514 25.2634C84.3649 25.0856 84.1566 24.9968 83.8885 24.9968ZM100.211 26.3523C100.404 26.3523 100.553 26.4486 100.657 26.6412C100.762 26.8338 100.814 27.0783 100.814 27.3745C100.814 27.7449 100.762 28.0338 100.657 28.2412C100.553 28.4338 100.389 28.5671 100.166 28.6412C99.2723 28.9523 98.2893 29.1301 97.2169 29.1745C96.9192 30.4041 96.3528 31.3968 95.5189 32.1523C94.6995 32.9079 93.7914 33.2856 92.7933 33.2856C91.2891 33.2856 90.1944 32.7153 89.509 31.5745C88.8237 30.4338 88.4813 28.7819 88.4813 26.619C88.4813 24.7079 88.7198 22.6338 89.1963 20.3968C89.6727 18.1449 90.3653 16.2338 91.274 14.6634C92.1973 13.0783 93.292 12.2856 94.5582 12.2856C95.2436 12.2856 95.7943 12.5819 96.2115 13.1745C96.6287 13.7523 96.8371 14.5079 96.8371 15.4412C96.8371 16.656 96.6064 17.8634 96.1445 19.0634C95.6826 20.2634 94.9157 21.5227 93.8433 22.8412C94.8414 22.9153 95.653 23.3301 96.2785 24.0856C96.9041 24.8264 97.2766 25.7449 97.3956 26.8412C98.0955 26.7968 98.9299 26.6486 99.8979 26.3968C99.9872 26.3671 100.092 26.3523 100.211 26.3523ZM94.0444 14.4856C93.7467 14.4856 93.4188 14.9301 93.0613 15.819C92.719 16.693 92.3984 17.8856 92.1007 19.3968C91.803 20.9079 91.5795 22.5597 91.4304 24.3523C92.4134 22.5597 93.1954 20.9819 93.7763 19.619C94.3722 18.2412 94.6699 17.019 94.6699 15.9523C94.6699 15.4783 94.6102 15.1153 94.4912 14.8634C94.3868 14.6116 94.2382 14.4856 94.0444 14.4856ZM92.8826 30.9301C93.3445 30.9301 93.7539 30.7375 94.1114 30.3523C94.4689 29.9671 94.7074 29.4116 94.8263 28.6856C94.3644 28.3745 94.007 27.9671 93.7539 27.4634C93.5154 26.9597 93.3965 26.4264 93.3965 25.8634C93.3965 25.656 93.4261 25.3745 93.4858 25.019H93.4188C92.8083 25.019 92.2945 25.3227 91.8773 25.9301C91.4751 26.5227 91.274 27.3227 91.274 28.3301C91.274 29.1745 91.4304 29.819 91.7432 30.2634C92.0711 30.7079 92.4509 30.9301 92.8826 30.9301ZM103.308 33.2856C101.819 33.2856 100.732 32.7153 100.046 31.5745C99.3762 30.4338 99.0411 28.7819 99.0411 26.619C99.0411 24.7079 99.2796 22.6338 99.756 20.3968C100.233 18.1449 100.926 16.2338 101.834 14.6634C102.758 13.0783 103.852 12.2856 105.118 12.2856C105.803 12.2856 106.355 12.5819 106.771 13.1745C107.188 13.7523 107.397 14.5079 107.397 15.4412C107.397 16.656 107.166 17.8634 106.704 19.0634C106.243 20.2634 105.475 21.5227 104.403 22.8412C105.133 22.9005 105.766 23.1449 106.302 23.5745C106.853 24.0041 107.271 24.5597 107.553 25.2412C107.851 25.9227 108 26.6634 108 27.4634C108 28.5745 107.777 29.5745 107.33 30.4634C106.898 31.3523 106.324 32.0486 105.609 32.5523C104.895 33.0412 104.128 33.2856 103.308 33.2856ZM101.99 24.3523C102.973 22.5597 103.755 20.9819 104.336 19.619C104.932 18.2412 105.23 17.019 105.23 15.9523C105.23 15.4783 105.17 15.1153 105.051 14.8634C104.947 14.6116 104.798 14.4856 104.604 14.4856C104.306 14.4856 103.979 14.9301 103.621 15.819C103.279 16.693 102.959 17.8856 102.66 19.3968C102.363 20.9079 102.139 22.5597 101.99 24.3523ZM103.398 30.8856C103.904 30.8856 104.329 30.6116 104.671 30.0634C105.029 29.5153 105.207 28.7153 105.207 27.6634C105.207 26.8486 105.059 26.2338 104.76 25.819C104.463 25.4041 104.105 25.1968 103.688 25.1968C103.167 25.1968 102.727 25.4634 102.37 25.9968C102.012 26.5301 101.834 27.3079 101.834 28.3301C101.834 29.219 101.983 29.8708 102.281 30.2856C102.579 30.6856 102.951 30.8856 103.398 30.8856Z" fill="#3351F2"/>
	<path d="M23.1407 46.3571C35.921 46.3571 46.2814 35.9797 46.2814 23.1786C46.2814 10.3774 35.921 0 23.1407 0C10.3605 0 0 10.3774 0 23.1786C0 35.9797 10.3605 46.3571 23.1407 46.3571Z" fill="#3351F2"/>
	<path d="M38.0761 22.8171C38.437 22.8171 38.6958 22.8957 38.8527 23.0529C39.0253 23.21 39.1116 23.4143 39.1116 23.6657C39.1116 24.0743 38.9861 24.4357 38.7351 24.75C38.4997 25.0643 38.1232 25.2293 37.6055 25.245C36.3661 25.2607 35.2522 25.1664 34.2638 24.9621C33.1656 27.3036 31.8399 29.2521 30.2867 30.8078C28.7493 32.3479 27.2275 33.1179 25.7214 33.1179C24.3408 33.1179 23.3053 32.3871 22.615 30.9257C21.9247 29.4486 21.5325 27.4764 21.4384 25.0093C20.497 27.7436 19.4302 29.7786 18.2379 31.1143C17.0612 32.45 15.8061 33.1179 14.4726 33.1179C12.9665 33.1179 11.8291 32.1829 11.0603 30.3129C10.2916 28.4271 9.90723 25.8971 9.90723 22.7228C9.90723 20.4128 10.1112 17.875 10.5191 15.1093C10.6289 14.3236 10.825 13.7814 11.1074 13.4828C11.4055 13.1686 11.8683 13.0114 12.4958 13.0114C12.9665 13.0114 13.3273 13.1136 13.5784 13.3178C13.8451 13.5221 13.9784 13.8993 13.9784 14.4493C13.9784 14.5593 13.9627 14.7714 13.9314 15.0857C13.4607 18.3071 13.2254 21.0493 13.2254 23.3121C13.2254 25.4178 13.4058 27.0443 13.7666 28.1914C14.1275 29.3386 14.6138 29.9121 15.2257 29.9121C15.7748 29.9121 16.4337 29.3386 17.2024 28.1914C17.9869 27.0286 18.7635 25.3157 19.5322 23.0529C20.3009 20.7743 20.952 18.0636 21.4854 14.9207C21.6109 14.1978 21.8384 13.7028 22.1679 13.4357C22.513 13.1528 22.9759 13.0114 23.5563 13.0114C24.0427 13.0114 24.3957 13.1214 24.6153 13.3414C24.8506 13.5457 24.9683 13.86 24.9683 14.2843C24.9683 14.5357 24.9526 14.7321 24.9212 14.8736C24.482 17.435 24.2623 19.9964 24.2623 22.5578C24.2623 24.3021 24.3172 25.6929 24.427 26.73C24.5526 27.7671 24.78 28.5607 25.1095 29.1107C25.4546 29.645 25.9488 29.9121 26.5921 29.9121C27.3451 29.9121 28.1845 29.3464 29.1101 28.215C30.0357 27.0679 30.8829 25.6457 31.6517 23.9486C30.6946 23.3514 29.973 22.5814 29.4866 21.6386C29.0003 20.68 28.7571 19.58 28.7571 18.3386C28.7571 17.0971 28.9454 16.0521 29.3219 15.2036C29.7141 14.3393 30.2397 13.695 30.8986 13.2707C31.5732 12.8464 32.3184 12.6343 33.1342 12.6343C34.1383 12.6343 34.9306 12.9957 35.5111 13.7186C36.1072 14.4414 36.4053 15.4314 36.4053 16.6886C36.4053 18.4643 36.0209 20.4364 35.2522 22.605C36.0523 22.7464 36.9936 22.8171 38.0761 22.8171ZM31.1339 18.1736C31.1339 19.7136 31.6281 20.8528 32.6165 21.5914C33.2284 19.8314 33.5343 18.3779 33.5343 17.2307C33.5343 16.5707 33.448 16.0914 33.2754 15.7928C33.1029 15.4786 32.8675 15.3214 32.5694 15.3214C32.1458 15.3214 31.8007 15.5728 31.534 16.0757C31.2673 16.5628 31.1339 17.2621 31.1339 18.1736Z" fill="white"/>
</svg>
